<svg width="15" height="17" viewBox="0 0 15 17" fill="none" xmlns="http://www.w3.org/2000/svg">
<path d="M7.5 0C3.36 0 0 3.03973 0 6.78311C0 9.62583 4.02 14.1291 6.39 16.5497C6.69 16.8593 7.08 17 7.5 17C7.92 17 8.31 16.8311 8.61 16.5497C10.98 14.1291 15 9.62583 15 6.78311C15 3.03973 11.64 0 7.5 0ZM7.62 15.7053C7.56 15.7616 7.47 15.7616 7.38 15.7053C4.47 12.7219 1.35 8.83775 1.35 6.78311C1.35 3.74338 4.11 1.26656 7.5 1.26656C10.89 1.26656 13.65 3.74338 13.65 6.78311C13.65 8.83775 10.53 12.7219 7.62 15.7053Z" fill="white"/>
<path d="M7.49998 3.91225C5.69998 3.91225 4.22998 5.29139 4.22998 6.98013C4.22998 8.66887 5.69998 10.0762 7.49998 10.0762C9.29998 10.0762 10.77 8.69702 10.77 7.00827C10.77 5.31953 9.29998 3.91225 7.49998 3.91225ZM7.49998 8.8096C6.41998 8.8096 5.57998 7.99337 5.57998 7.00827C5.57998 6.02317 6.44998 5.20695 7.49998 5.20695C8.54998 5.20695 9.41998 6.02317 9.41998 7.00827C9.41998 7.99337 8.57998 8.8096 7.49998 8.8096Z" fill="white"/>
</svg>
