<svg width="20" height="24" viewBox="0 0 20 24" fill="none" xmlns="http://www.w3.org/2000/svg">
<path d="M9.866 0C4.49149 0 0.129578 4.29139 0.129578 9.57616C0.129578 13.5894 5.3483 19.947 8.42501 23.3642C8.81446 23.8013 9.32076 24 9.866 24C10.4112 24 10.9175 23.7616 11.307 23.3642C14.3837 19.947 19.6024 13.5894 19.6024 9.57616C19.6024 4.29139 15.2405 0 9.866 0ZM10.0218 22.1722C9.94389 22.2517 9.82705 22.2517 9.71021 22.1722C5.93248 17.9603 1.88213 12.4768 1.88213 9.57616C1.88213 5.28477 5.46514 1.78808 9.866 1.78808C14.2669 1.78808 17.8499 5.28477 17.8499 9.57616C17.8499 12.4768 13.7995 17.9603 10.0218 22.1722Z" fill="white"/>
<path d="M9.86599 5.52319C7.52925 5.52319 5.62091 7.47021 5.62091 9.85432C5.62091 12.2384 7.52925 14.2252 9.86599 14.2252C12.2027 14.2252 14.1111 12.2782 14.1111 9.89405C14.1111 7.50995 12.2027 5.52319 9.86599 5.52319ZM9.86599 12.4371C8.46394 12.4371 7.37347 11.2848 7.37347 9.89405C7.37347 8.50333 8.50289 7.35101 9.86599 7.35101C11.2291 7.35101 12.3585 8.50333 12.3585 9.89405C12.3585 11.2848 11.268 12.4371 9.86599 12.4371Z" fill="white"/>
</svg>
