<svg width="23" height="23" viewBox="0 0 23 23" fill="none" xmlns="http://www.w3.org/2000/svg">
<path d="M21.6625 15.4571L18.625 12.4195C17.0875 10.8821 14.6875 10.732 12.9625 11.9695L11.1625 10.1695C11.6875 9.45705 11.9875 8.59455 11.9875 7.65705C11.9875 6.49455 11.5375 5.36955 10.7125 4.54455L7.675 1.50705C5.9875 -0.18045 3.2125 -0.18045 1.4875 1.50705C0.7 2.36955 0.25 3.45705 0.25 4.61955C0.25 5.78205 0.7 6.86955 1.525 7.69455L4.525 10.732C5.3875 11.5945 6.5125 12.007 7.6 12.007C8.425 12.007 9.2125 11.782 9.925 11.332L11.8 13.2071C11.35 13.8821 11.125 14.7071 11.125 15.5321C11.125 16.6946 11.575 17.782 12.4 18.607L15.4 21.6446C16.2625 22.5071 17.3875 22.9195 18.475 22.9195C19.6 22.9195 20.725 22.5071 21.55 21.6446C22.375 20.8196 22.825 19.732 22.825 18.5695C22.9375 17.407 22.4875 16.3196 21.6625 15.4571ZM5.725 9.53205L2.725 6.49455C2.2 5.96955 1.9375 5.29455 1.9375 4.58205C1.9375 3.86955 2.2 3.19455 2.725 2.66955C3.25 2.14455 3.925 1.88205 4.6375 1.88205C5.3125 1.88205 6.025 2.14455 6.55 2.66955L9.5875 5.66955C10.075 6.19455 10.375 6.86955 10.375 7.58205C10.375 8.06955 10.2625 8.48205 10.0375 8.89455L9.1 7.95705C8.7625 7.61955 8.2375 7.61955 7.9 7.95705C7.5625 8.29455 7.5625 8.81955 7.9 9.15705L8.7625 10.0195C7.7125 10.5445 6.5125 10.357 5.725 9.53205ZM20.425 20.4445C19.375 21.4945 17.65 21.4945 16.6375 20.4445L13.6375 17.4071C13.1125 16.8821 12.85 16.2071 12.85 15.4946C12.85 15.1196 12.925 14.7446 13.075 14.4071L13.9375 15.232C14.0875 15.382 14.3125 15.4946 14.5375 15.4946C14.7625 15.4946 14.9875 15.4195 15.1375 15.232C15.475 14.8945 15.475 14.3696 15.1375 14.0321L14.2 13.2071C14.6125 12.9821 15.0625 12.8696 15.5125 12.8696C16.1875 12.8696 16.9 13.1321 17.425 13.6571L20.4625 16.6571C20.95 17.1821 21.25 17.857 21.25 18.5695C21.2125 19.282 20.95 19.957 20.425 20.4445Z" fill="white"/>
</svg>
