<svg width="40" height="41" viewBox="0 0 40 41" fill="none" xmlns="http://www.w3.org/2000/svg">
<g clip-path="url(#clip0_48_193)">
<path d="M30.9577 27.1667C32.3831 29.0977 33.853 31.0736 35.3229 33.0495C32.3831 36.5522 28.7305 38.7976 24.3207 39.7406C19.4209 40.7735 14.7884 40.0101 10.2895 37.4953C14.2984 34.4865 18.2183 31.5227 22.1826 28.5588C23.0735 29.412 23.9198 30.2653 24.7661 31.0736C25.7016 31.9717 25.3452 32.0166 26.5479 31.343C28.196 30.4 29.5768 29.0977 30.6459 27.5259C30.6904 27.4361 30.7795 27.3463 30.824 27.2565C30.7795 27.2565 30.824 27.2565 30.9577 27.1667V27.1667ZM13.4521 31.1185C12.3385 31.9717 11.314 32.7351 10.2895 33.5435C9.53229 34.1273 8.77505 34.6661 8.01781 35.2499C7.70601 35.5194 7.48329 35.5194 7.12694 35.205C3.74164 32.1514 1.60356 28.3792 0.801777 23.8885C-4.75496e-06 19.3528 0.71269 15.0418 2.85077 10.9552C2.89532 10.8654 2.9844 10.7307 3.02895 10.6409C3.02895 10.596 3.07349 10.596 3.16258 10.5511C6.10244 14.458 9.08686 18.3649 12.0267 22.2718C11.9376 22.4065 11.8931 22.4963 11.804 22.5862C10.9131 23.5292 10.0223 24.4722 9.08686 25.3704C8.8196 25.6398 8.77505 25.8644 8.95322 26.1787C9.88864 27.975 11.1804 29.4569 12.784 30.6694C13.0067 30.8041 13.1849 30.9389 13.4521 31.1185V31.1185ZM30.0668 3.23121C28.6414 4.26408 27.216 5.29694 25.7906 6.28489C23.3408 8.03627 20.8909 9.83255 18.4855 11.5839C18.1737 11.8085 17.951 11.8534 17.6837 11.539C16.882 10.6858 16.0356 9.92236 15.2338 9.06913C15.0111 8.84459 14.7884 8.79969 14.4766 8.93441C12.5612 9.92236 11.0468 11.3145 9.79955 13.0659C9.71046 13.1557 9.62138 13.2904 9.53229 13.4251C8.8196 12.4821 8.15144 11.6288 7.48329 10.7307C6.7706 9.78764 6.10245 8.84459 5.43429 7.94645C5.21158 7.6321 5.16703 7.40757 5.47884 7.09322C8.90868 3.27612 13.1403 1.03077 18.2183 0.491884C22.2272 0.0428137 26.0579 0.851141 29.6214 2.78214C29.755 2.87196 29.8886 2.91686 30.0223 3.00668C30.0223 3.1414 30.0223 3.18631 30.0668 3.23121V3.23121ZM37.3274 30.1754C36.392 28.963 35.5456 27.8403 34.6993 26.7176C32.7394 24.113 30.7795 21.4635 28.775 18.8589C28.5078 18.4996 28.5078 18.2751 28.8196 17.9607C29.6659 17.1075 30.4677 16.2543 31.314 15.401C31.5367 15.1765 31.6258 14.952 31.4477 14.6376C30.4677 12.7515 29.1314 11.1798 27.3942 9.92236C27.2606 9.83255 27.1269 9.69783 26.9488 9.60801C27.0824 9.47329 27.216 9.38348 27.3051 9.29367C28.9978 7.99136 30.6904 6.73396 32.3831 5.43166C32.6503 5.20712 32.873 5.11731 33.1848 5.43166C37.4165 9.29366 39.6882 14.0987 39.9109 19.8917C40 23.2598 39.2428 26.4482 37.7283 29.4569C37.5946 29.6366 37.461 29.8611 37.3274 30.1754V30.1754Z" fill="white"/>
</g>
<defs>
<clipPath id="clip0_48_193">
<rect width="40" height="40.8163" fill="white"/>
</clipPath>
</defs>
</svg>
