<svg width="40" height="41" viewBox="0 0 40 41" fill="none" xmlns="http://www.w3.org/2000/svg">
<g clip-path="url(#clip0_48_211)">
<path d="M30.9577 27.1667C32.3831 29.0977 33.853 31.0736 35.3229 33.0495C32.3831 36.5523 28.7305 38.7976 24.3207 39.7407C19.4209 40.7735 14.7884 40.0101 10.2895 37.4953C14.2984 34.4865 18.2183 31.5227 22.1826 28.5588C23.0735 29.4121 23.9198 30.2653 24.7661 31.0736C25.7016 31.9718 25.3452 32.0167 26.5479 31.3431C28.196 30.4 29.5768 29.0977 30.6459 27.526C30.6904 27.4361 30.7795 27.3463 30.824 27.2565C30.7795 27.2565 30.824 27.2565 30.9577 27.1667V27.1667ZM13.4521 31.1185C12.3385 31.9718 11.314 32.7352 10.2895 33.5435C9.53229 34.1273 8.77505 34.6662 8.01781 35.25C7.70601 35.5194 7.48329 35.5194 7.12694 35.2051C3.74164 32.1514 1.60356 28.3792 0.801777 23.8885C-4.75496e-06 19.3529 0.71269 15.0418 2.85077 10.9553C2.89532 10.8654 2.9844 10.7307 3.02895 10.6409C3.02895 10.596 3.07349 10.596 3.16258 10.5511C6.10244 14.458 9.08686 18.3649 12.0267 22.2718C11.9376 22.4066 11.8931 22.4964 11.804 22.5862C10.9131 23.5292 10.0223 24.4723 9.08686 25.3704C8.8196 25.6399 8.77505 25.8644 8.95322 26.1787C9.88864 27.975 11.1804 29.457 12.784 30.6695C13.0067 30.8042 13.1849 30.9389 13.4521 31.1185V31.1185ZM30.0668 3.23124C28.6414 4.26411 27.216 5.29697 25.7906 6.28492C23.3408 8.0363 20.8909 9.83258 18.4855 11.584C18.1737 11.8085 17.951 11.8534 17.6837 11.539C16.882 10.6858 16.0356 9.92239 15.2338 9.06916C15.0111 8.84463 14.7884 8.79972 14.4766 8.93444C12.5612 9.92239 11.0468 11.3145 9.79955 13.0659C9.71046 13.1557 9.62138 13.2904 9.53229 13.4251C8.8196 12.4821 8.15144 11.6289 7.48329 10.7307C6.7706 9.78767 6.10245 8.84463 5.43429 7.94648C5.21158 7.63214 5.16703 7.4076 5.47884 7.09325C8.90868 3.27615 13.1403 1.0308 18.2183 0.491915C22.2272 0.0428442 26.0579 0.851171 29.6214 2.78217C29.755 2.87199 29.8886 2.9169 30.0223 3.00671C30.0223 3.14143 30.0223 3.18634 30.0668 3.23124V3.23124ZM37.3274 30.1755C36.392 28.963 35.5456 27.8403 34.6993 26.7176C32.7394 24.113 30.7795 21.4635 28.775 18.8589C28.5078 18.4996 28.5078 18.2751 28.8196 17.9608C29.6659 17.1075 30.4677 16.2543 31.314 15.4011C31.5367 15.1765 31.6258 14.952 31.4477 14.6376C30.4677 12.7515 29.1314 11.1798 27.3942 9.92239C27.2606 9.83258 27.1269 9.69786 26.9488 9.60805C27.0824 9.47332 27.216 9.38351 27.3051 9.2937C28.9978 7.99139 30.6904 6.73399 32.3831 5.43169C32.6503 5.20715 32.873 5.11734 33.1848 5.43169C37.4165 9.29369 39.6882 14.0988 39.9109 19.8918C40 23.2598 39.2428 26.4482 37.7283 29.457C37.5946 29.6366 37.461 29.8611 37.3274 30.1755V30.1755Z" fill="white"/>
</g>
<defs>
<clipPath id="clip0_48_211">
<rect width="40" height="40.8163" fill="white"/>
</clipPath>
</defs>
</svg>
